<?xml version="1.0" encoding="UTF-8"?>
<!DOCTYPE svg PUBLIC "-//W3C//DTD SVG 1.1//EN" "http://www.w3.org/Graphics/SVG/1.1/DTD/svg11.dtd">
<svg xmlns="http://www.w3.org/2000/svg" version="1.1" width="512px" height="512px" style="shape-rendering:geometricPrecision; text-rendering:geometricPrecision; image-rendering:optimizeQuality; fill-rule:evenodd; clip-rule:evenodd" xmlns:xlink="http://www.w3.org/1999/xlink">
<g><path style="opacity:0.972" fill="#000000" d="M 159.5,-0.5 C 223.5,-0.5 287.5,-0.5 351.5,-0.5C 396.487,8.98693 423.653,36.3203 433,81.5C 437.115,120.881 423.282,152.048 391.5,175C 427.929,202.611 440.762,238.778 430,283.5C 416.664,322.086 389.831,344.586 349.5,351C 320.065,354.63 294.231,346.796 272,327.5C 271.667,360.5 271.333,393.5 271,426.5C 262.103,473.563 234.269,501.896 187.5,511.5C 178.167,511.5 168.833,511.5 159.5,511.5C 114.513,502.013 87.3467,474.68 78,429.5C 73.885,390.119 87.7183,358.952 119.5,336C 79.3575,304.618 67.8575,264.784 85,216.5C 92.8467,199.646 104.347,185.813 119.5,175C 96.2199,159.299 82.3865,137.465 78,109.5C 73.7892,62.407 92.6226,28.2403 134.5,7C 142.723,3.70005 151.057,1.20005 159.5,-0.5 Z M 164.5,31.5 C 189.5,31.5 214.5,31.5 239.5,31.5C 239.5,74.1667 239.5,116.833 239.5,159.5C 215.831,159.667 192.164,159.5 168.5,159C 138.792,154.618 119.625,138.118 111,109.5C 106.301,67.8647 124.134,41.8647 164.5,31.5 Z M 271.5,31.5 C 296.502,31.3334 321.502,31.5 346.5,32C 380.506,39.3381 398.839,60.3381 401.5,95C 400.063,123.425 386.396,143.425 360.5,155C 354.674,157.099 348.674,158.432 342.5,159C 318.836,159.5 295.169,159.667 271.5,159.5C 271.5,116.833 271.5,74.1667 271.5,31.5 Z M 166.5,191.5 C 190.833,191.5 215.167,191.5 239.5,191.5C 239.5,234.167 239.5,276.833 239.5,319.5C 215.164,319.667 190.831,319.5 166.5,319C 131.281,312.398 112.281,291.231 109.5,255.5C 112.384,219.689 131.384,198.355 166.5,191.5 Z M 328.5,191.5 C 362.455,189.961 385.789,204.794 398.5,236C 406.123,267.812 396.456,292.812 369.5,311C 344.104,323.642 319.771,321.976 296.5,306C 268.067,279.304 264.234,249.47 285,216.5C 296.532,202.823 311.032,194.49 328.5,191.5 Z M 168.5,351.5 C 192.167,351.5 215.833,351.5 239.5,351.5C 239.667,374.502 239.5,397.502 239,420.5C 232.557,456.943 210.89,476.61 174,479.5C 138.846,477.256 117.513,458.922 110,424.5C 107.972,392.378 121.472,369.545 150.5,356C 156.52,354.036 162.52,352.536 168.5,351.5 Z"/></g>
</svg>
